<?xml version="1.0" encoding="UTF-8"?>
<svg id="Layer_2" data-name="Layer 2" xmlns="http://www.w3.org/2000/svg" viewBox="0 0 155.4 106.72">
  <defs>
    <style>
      .cls-1 {
        stroke-width: 0px;
      }

      .cls-1, .cls-2 {
        fill: #4a5d48;
      }

      .cls-3 {
        letter-spacing: .24em;
      }

      .cls-2 {
        font-family: AvenirNextLTPro-Demi, 'Avenir Next LT Pro';
        font-size: 34.77px;
        font-weight: 300;
      }

      .cls-4 {
        letter-spacing: .3em;
      }

      .cls-5 {
        letter-spacing: .29em;
      }
    </style>
  </defs>
  <g id="Colours">
    <g>
      <path class="cls-1" d="M36.12,17.04c-2.42-3.09-6.86-5.1-10.53-5.1s-8.28,1.25-8.28,5.94c0,3.93,3.51,5.18,9.11,6.94,8.03,2.59,18.39,6.02,18.39,17.81,0,13.63-10.95,19.73-22.66,19.73-8.44,0-16.97-3.09-22.16-8.53l9.36-9.53c2.84,3.59,8.11,6.27,12.79,6.27,4.35,0,8.19-1.67,8.19-6.44,0-4.52-4.51-5.94-12.29-8.44-7.52-2.42-15.13-6.27-15.13-16.97C2.93,5.59,14.8.15,25.83.15c6.69,0,14.21,2.51,19.4,7.27l-9.11,9.61Z"/>
      <path class="cls-1" d="M146.28,17.04c-2.42-3.09-6.86-5.1-10.53-5.1s-8.28,1.25-8.28,5.94c0,3.93,3.51,5.18,9.11,6.94,8.03,2.59,18.39,6.02,18.39,17.81,0,13.63-10.95,19.73-22.66,19.73-8.44,0-16.97-3.09-22.16-8.53l9.36-9.53c2.84,3.59,8.11,6.27,12.79,6.27,4.35,0,8.19-1.67,8.19-6.44,0-4.52-4.51-5.94-12.29-8.44-7.52-2.42-15.13-6.27-15.13-16.97C113.09,5.59,124.96.15,136,.15c6.69,0,14.21,2.51,19.4,7.27l-9.11,9.61Z"/>
      <path class="cls-1" d="M110.07,26.36c-.34,1.26-2.96,5.52-4.82,8.65-2.98,4.91-5.83,10.73-10.62,14.1-18.95,13.45-44.28-14.8-36.7-31.76,2.57-6.46,10.2-9.18,16.23-10.94,2.65-.82,4.49-1.49,4.76-2.12.2-1.34-3.64-1.18-7-.6-3.01.56-6.52,1.84-9.58,3.91-27.32,18.93,7.01,61.18,31.51,46.94,2.08-1.14,4.98-3.43,6.47-4.38,2.56-1.71.6,1.83-.07,2.83-6.01,10.37-16.8,11.39-27.47,7.25C42.94,50.57,39.23-2.58,75.47.1c6.04.68,12.02,2.91,16.93,6.5,6.64,4.82,12.38,11.84,9.67,20.05-2.01,5.83-8.1,15.19-14.17,17.81-6.52,2.72-13.95-1.34-18.4-6.47-5.69-6-7.35-16.89-.88-22.45,5.19-4.92,15.04-3.11,18.41,3.38,3.25,5.07-.15,13.46-6.81,11.01-1.81-.74-3.02-2.3-3.55-3.95-.18-.45-.65-2.5.16-1.77.62.6,1.91,3.08,3.8,3.35,3.49.44,6.14-3.23,4.54-6.51-4.29-8.81-16.91-6.72-17.96,3.2-1.07,8.19,6.67,16.08,14.68,16.94,9.39,1.32,16.55-8.19,16.25-17.21.13-6.39-4.86-13.94-9.97-16.29-1.21-.33,1.75,3.33,2.23,4.19.91,1.35,1.94,2.94,2.66,4.51,3.83,7.81-.03,20.15-9.63,20.77-7.99.95-17.35-9.25-11.46-16.31,2.55-2.93,8.64-4.46,11.1-.92.54.78,1.34,2.53.26,2.87-3.75.12-8.84-4.91-11.22,1.18-.98,3.15.67,6.86,3.2,8.86,4.36,3.53,10.68.94,13.78-3.13,14.13-19.35-27.93-28.23-28.41-6.36-.47,11.72,10.65,26.68,22.66,26.89,11.84-.46,17.82-18.15,25.03-23.88.83-.65,2.21-1.72,1.7-.05v.04Z"/>
      <text class="cls-2" transform="translate(4.67 98.02)"><tspan class="cls-5" x="0" y="0">S</tspan><tspan class="cls-3" x="29.97" y="0">TA</tspan><tspan class="cls-4" x="91.23" y="0">YS</tspan></text>
    </g>
  </g>
</svg>